0
SECTION
2
HEADER
9
$ACADVER
1
AC1009
0
ENDSEC
0
SECTION
2
TABLES
0
TABLE
2
STYLE
70
3
0
STYLE
2
STANDARD
70
0
40
0.0
41
1.0
50
0.0
71
0
42
2.5
3
txt
4

0
STYLE
2
ESTILO-VALLE
70
0
40
0.0
41
1.0
50
0.0
71
0
42
2.5
3
txt
4

0
STYLE
2
ROTULOS
70
0
40
0.0
41
0.8
50
0.0
71
0
42
2.5
3
txt
4

0
ENDTAB
0
ENDSEC
0
SECTION
2
ENTITIES
0
TEXT
8
0
10
10.0
20
10.0
30
0.0
40
5.0
1
VALLE DESIGN
0
TEXT
8
0
10
10.0
20
30.0
30
0.0
40
7.0
1
PLANTA BAJA
50
15.0
7
ESTILO-VALLE
0
TEXT
8
0
10
10.0
20
50.0
30
0.0
40
4.0
1
CORTE A-A
41
0.8
7
ROTULOS
0
ENDSEC
0
EOF
