0
SECTION
2
HEADER
9
$ACADVER
1
AC1009
0
ENDSEC
0
SECTION
2
TABLES
0
TABLE
2
LTYPE
70
2
0
LTYPE
2
CONTINUOUS
70
0
3
Linea continua
72
65
73
0
40
0.0
0
LTYPE
2
TRAZOS
70
0
3
Trazos - - - -
72
65
73
2
40
1.0
49
0.75
49
-0.25
0
ENDTAB
0
TABLE
2
LAYER
70
5
0
LAYER
2
0
70
0
62
7
6
CONTINUOUS
0
LAYER
2
MUROS
70
0
62
1
6
CONTINUOUS
0
LAYER
2
PUERTAS
70
0
62
4
6
CONTINUOUS
0
LAYER
2
TEXTOS
70
0
62
6
6
CONTINUOUS
0
LAYER
2
EJES
70
0
62
2
6
TRAZOS
0
ENDTAB
0
ENDSEC
0
SECTION
2
BLOCKS
0
BLOCK
8
0
2
PUERTA
70
0
10
0.0
20
0.0
30
0.0
0
LINE
8
PUERTAS
10
0.0
20
0.0
30
0.0
11
0.0
21
9.0
31
0.0
0
ARC
8
PUERTAS
10
0.0
20
0.0
30
0.0
40
9.0
50
270.0
51
0.0
0
ENDBLK
8
0
0
ENDSEC
0
SECTION
2
ENTITIES
0
POLYLINE
8
MUROS
66
1
70
1
0
VERTEX
8
MUROS
10
0.0
20
0.0
30
0.0
0
VERTEX
8
MUROS
10
120.0
20
0.0
30
0.0
0
VERTEX
8
MUROS
10
120.0
20
90.0
30
0.0
0
VERTEX
8
MUROS
10
0.0
20
90.0
30
0.0
0
SEQEND
8
MUROS
0
LINE
8
MUROS
10
60.0
20
0.0
30
0.0
11
60.0
21
35.0
31
0.0
0
LINE
8
MUROS
10
60.0
20
55.0
30
0.0
11
60.0
21
90.0
31
0.0
0
INSERT
8
PUERTAS
2
PUERTA
10
60.0
20
55.0
30
0.0
50
0.0
0
INSERT
8
PUERTAS
2
PUERTA
10
60.0
20
35.0
30
0.0
41
1.0
42
1.0
43
1.0
50
90.0
0
TEXT
8
TEXTOS
10
20.0
20
45.0
30
0.0
40
5.0
1
SALA
0
TEXT
8
TEXTOS
10
80.0
20
45.0
30
0.0
40
5.0
1
COCINA
0
LINE
8
EJES
10
-10.0
20
45.0
30
0.0
11
130.0
21
45.0
31
0.0
0
ENDSEC
0
EOF
