0
SECTION
2
HEADER
9
$ACADVER
1
AC1015
9
$HANDSEED
5
FFFF
0
ENDSEC
0
SECTION
2
TABLES
0
TABLE
2
VPORT
5
8
100
AcDbSymbolTable
70
0
0
ENDTAB
0
TABLE
2
LTYPE
5
5
100
AcDbSymbolTable
70
3
0
LTYPE
5
14
100
AcDbSymbolTableRecord
100
AcDbLinetypeTableRecord
2
ByBlock
70
0
3

72
65
73
0
40
0.0
0
LTYPE
5
15
100
AcDbSymbolTableRecord
100
AcDbLinetypeTableRecord
2
ByLayer
70
0
3

72
65
73
0
40
0.0
0
LTYPE
5
16
100
AcDbSymbolTableRecord
100
AcDbLinetypeTableRecord
2
CONTINUOUS
70
0
3
Linea continua
72
65
73
0
40
0.0
0
ENDTAB
0
TABLE
2
LAYER
5
2
100
AcDbSymbolTable
70
3
0
LAYER
5
10
100
AcDbSymbolTableRecord
100
AcDbLayerTableRecord
2
0
70
0
62
7
6
CONTINUOUS
0
LAYER
5
102
100
AcDbSymbolTableRecord
100
AcDbLayerTableRecord
2
MARCOS
70
0
62
4
6
CONTINUOUS
0
LAYER
5
103
100
AcDbSymbolTableRecord
100
AcDbLayerTableRecord
2
TEXTOS-2
70
0
62
6
6
CONTINUOUS
0
ENDTAB
0
TABLE
2
STYLE
5
3
100
AcDbSymbolTable
70
1
0
STYLE
5
11
100
AcDbSymbolTableRecord
100
AcDbTextStyleTableRecord
2
STANDARD
70
0
40
0.0
41
1.0
50
0.0
71
0
42
2.5
3
txt
4

0
ENDTAB
0
TABLE
2
VIEW
5
6
100
AcDbSymbolTable
70
0
0
ENDTAB
0
TABLE
2
UCS
5
7
100
AcDbSymbolTable
70
0
0
ENDTAB
0
TABLE
2
APPID
5
9
100
AcDbSymbolTable
70
1
0
APPID
5
12
100
AcDbSymbolTableRecord
100
AcDbRegAppTableRecord
2
ACAD
70
0
0
ENDTAB
0
TABLE
2
DIMSTYLE
5
A
100
AcDbSymbolTable
70
1
0
DIMSTYLE
105
27
100
AcDbSymbolTableRecord
100
AcDbDimStyleTableRecord
2
STANDARD
70
0
0
ENDTAB
0
TABLE
2
BLOCK_RECORD
5
1
100
AcDbSymbolTable
70
4
0
BLOCK_RECORD
5
1F
100
AcDbSymbolTableRecord
100
AcDbBlockTableRecord
2
*Model_Space
0
BLOCK_RECORD
5
1B
100
AcDbSymbolTableRecord
100
AcDbBlockTableRecord
2
*Paper_Space
0
BLOCK_RECORD
5
100
100
AcDbSymbolTableRecord
100
AcDbBlockTableRecord
2
TITULO
0
BLOCK_RECORD
5
101
100
AcDbSymbolTableRecord
100
AcDbBlockTableRecord
2
CONJUNTO
0
ENDTAB
0
ENDSEC
0
SECTION
2
BLOCKS
0
BLOCK
5
20
330
1F
100
AcDbEntity
8
0
100
AcDbBlockBegin
2
*Model_Space
70
0
10
0.0
20
0.0
30
0.0
3
*Model_Space
1

0
ENDBLK
5
21
330
1F
100
AcDbEntity
8
0
100
AcDbBlockEnd
0
BLOCK
5
1C
330
1B
100
AcDbEntity
67
1
8
0
100
AcDbBlockBegin
2
*Paper_Space
70
0
10
0.0
20
0.0
30
0.0
3
*Paper_Space
1

0
ENDBLK
5
1D
330
1B
100
AcDbEntity
67
1
8
0
100
AcDbBlockEnd
0
BLOCK
5
104
330
100
100
AcDbEntity
8
0
100
AcDbBlockBegin
2
TITULO
70
2
10
0.0
20
0.0
30
0.0
3
TITULO
1

0
LINE
5
105
330
100
100
AcDbEntity
8
MARCOS
100
AcDbLine
10
0.0
20
0.0
30
0.0
11
60.0
21
0.0
31
0.0
0
LINE
5
106
330
100
100
AcDbEntity
8
MARCOS
100
AcDbLine
10
60.0
20
0.0
30
0.0
11
60.0
21
20.0
31
0.0
0
LINE
5
107
330
100
100
AcDbEntity
8
MARCOS
100
AcDbLine
10
60.0
20
20.0
30
0.0
11
0.0
21
20.0
31
0.0
0
LINE
5
108
330
100
100
AcDbEntity
8
MARCOS
100
AcDbLine
10
0.0
20
20.0
30
0.0
11
0.0
21
0.0
31
0.0
0
ATTDEF
5
109
330
100
100
AcDbEntity
8
TEXTOS-2
100
AcDbText
10
4.0
20
12.0
30
0.0
40
4.0
1
S/C
100
AcDbAttributeDefinition
3
Clave del plano
2
CLAVE
70
0
0
ATTDEF
5
10A
330
100
100
AcDbEntity
8
TEXTOS-2
100
AcDbText
10
4.0
20
4.0
30
0.0
40
3.0
1
0
100
AcDbAttributeDefinition
3
Revision
2
REV
70
0
0
ENDBLK
5
10B
330
100
100
AcDbEntity
8
0
100
AcDbBlockEnd
0
BLOCK
5
10C
330
101
100
AcDbEntity
8
0
100
AcDbBlockBegin
2
CONJUNTO
70
2
10
0.0
20
0.0
30
0.0
3
CONJUNTO
1

0
LINE
5
10D
330
101
100
AcDbEntity
8
MARCOS
100
AcDbLine
10
-5.0
20
-5.0
30
0.0
11
75.0
21
-5.0
31
0.0
0
LINE
5
10E
330
101
100
AcDbEntity
8
MARCOS
100
AcDbLine
10
75.0
20
-5.0
30
0.0
11
75.0
21
35.0
31
0.0
0
LINE
5
10F
330
101
100
AcDbEntity
8
MARCOS
100
AcDbLine
10
75.0
20
35.0
30
0.0
11
-5.0
21
35.0
31
0.0
0
LINE
5
110
330
101
100
AcDbEntity
8
MARCOS
100
AcDbLine
10
-5.0
20
35.0
30
0.0
11
-5.0
21
-5.0
31
0.0
0
INSERT
5
111
330
101
100
AcDbEntity
8
0
100
AcDbBlockReference
66
1
2
TITULO
10
5.0
20
5.0
30
0.0
0
ATTRIB
5
112
330
101
100
AcDbEntity
8
TEXTOS-2
100
AcDbText
10
9.0
20
17.0
30
0.0
40
4.0
1
VD-101
100
AcDbAttribute
2
CLAVE
70
0
0
ATTRIB
5
113
330
101
100
AcDbEntity
8
TEXTOS-2
100
AcDbText
10
9.0
20
9.0
30
0.0
40
3.0
1
B
100
AcDbAttribute
2
REV
70
0
0
SEQEND
5
114
330
101
100
AcDbEntity
8
0
0
ATTDEF
5
115
330
101
100
AcDbEntity
8
TEXTOS-2
100
AcDbText
10
0.0
20
28.0
30
0.0
40
4.0
1
SIN PROYECTO
100
AcDbAttributeDefinition
3
Nombre del proyecto
2
PROYECTO
70
0
0
ENDBLK
5
116
330
101
100
AcDbEntity
8
0
100
AcDbBlockEnd
0
ENDSEC
0
SECTION
2
ENTITIES
0
INSERT
5
117
330
1F
100
AcDbEntity
8
0
100
AcDbBlockReference
66
1
2
CONJUNTO
10
20.0
20
20.0
30
0.0
0
ATTRIB
5
118
330
1F
100
AcDbEntity
8
TEXTOS-2
100
AcDbText
10
20.0
20
48.0
30
0.0
40
4.0
1
CASA VALLE
100
AcDbAttribute
2
PROYECTO
70
0
0
SEQEND
5
119
330
1F
100
AcDbEntity
8
0
0
ENDSEC
0
SECTION
2
OBJECTS
0
DICTIONARY
5
C
330
0
100
AcDbDictionary
281
1
3
ACAD_GROUP
350
D
0
DICTIONARY
5
D
330
C
100
AcDbDictionary
281
1
0
ENDSEC
0
EOF
