0
SECTION
2
HEADER
9
$ACADVER
1
AC1015
9
$HANDSEED
5
FFFF
0
ENDSEC
0
SECTION
2
TABLES
0
TABLE
2
VPORT
5
8
100
AcDbSymbolTable
70
0
0
ENDTAB
0
TABLE
2
LTYPE
5
5
100
AcDbSymbolTable
70
3
0
LTYPE
5
14
100
AcDbSymbolTableRecord
100
AcDbLinetypeTableRecord
2
ByBlock
70
0
3

72
65
73
0
40
0.0
0
LTYPE
5
15
100
AcDbSymbolTableRecord
100
AcDbLinetypeTableRecord
2
ByLayer
70
0
3

72
65
73
0
40
0.0
0
LTYPE
5
16
100
AcDbSymbolTableRecord
100
AcDbLinetypeTableRecord
2
CONTINUOUS
70
0
3
Linea continua
72
65
73
0
40
0.0
0
ENDTAB
0
TABLE
2
LAYER
5
2
100
AcDbSymbolTable
70
2
0
LAYER
5
10
100
AcDbSymbolTableRecord
100
AcDbLayerTableRecord
2
0
70
0
62
7
6
CONTINUOUS
0
LAYER
5
102
100
AcDbSymbolTableRecord
100
AcDbLayerTableRecord
2
MUROS-ML
70
0
62
1
6
CONTINUOUS
0
ENDTAB
0
TABLE
2
STYLE
5
3
100
AcDbSymbolTable
70
1
0
STYLE
5
11
100
AcDbSymbolTableRecord
100
AcDbTextStyleTableRecord
2
STANDARD
70
0
40
0.0
41
1.0
50
0.0
71
0
42
2.5
3
txt
4

0
ENDTAB
0
TABLE
2
VIEW
5
6
100
AcDbSymbolTable
70
0
0
ENDTAB
0
TABLE
2
UCS
5
7
100
AcDbSymbolTable
70
0
0
ENDTAB
0
TABLE
2
APPID
5
9
100
AcDbSymbolTable
70
1
0
APPID
5
12
100
AcDbSymbolTableRecord
100
AcDbRegAppTableRecord
2
ACAD
70
0
0
ENDTAB
0
TABLE
2
DIMSTYLE
5
A
100
AcDbSymbolTable
70
1
0
DIMSTYLE
105
27
100
AcDbSymbolTableRecord
100
AcDbDimStyleTableRecord
2
STANDARD
70
0
0
ENDTAB
0
TABLE
2
BLOCK_RECORD
5
1
100
AcDbSymbolTable
70
2
0
BLOCK_RECORD
5
1F
100
AcDbSymbolTableRecord
100
AcDbBlockTableRecord
2
*Model_Space
0
BLOCK_RECORD
5
1B
100
AcDbSymbolTableRecord
100
AcDbBlockTableRecord
2
*Paper_Space
0
ENDTAB
0
ENDSEC
0
SECTION
2
BLOCKS
0
BLOCK
5
20
330
1F
100
AcDbEntity
8
0
100
AcDbBlockBegin
2
*Model_Space
70
0
10
0.0
20
0.0
30
0.0
3
*Model_Space
1

0
ENDBLK
5
21
330
1F
100
AcDbEntity
8
0
100
AcDbBlockEnd
0
BLOCK
5
1C
330
1B
100
AcDbEntity
67
1
8
0
100
AcDbBlockBegin
2
*Paper_Space
70
0
10
0.0
20
0.0
30
0.0
3
*Paper_Space
1

0
ENDBLK
5
1D
330
1B
100
AcDbEntity
67
1
8
0
100
AcDbBlockEnd
0
ENDSEC
0
SECTION
2
ENTITIES
0
MLINE
5
103
330
1F
100
AcDbEntity
8
MUROS-ML
100
AcDbMline
2
VALLE-DOBLE
340
101
40
1.0
70
0
71
1
72
2
73
2
10
0.0
20
0.0
30
0.0
210
0.0
220
0.0
230
1.0
11
0.0
21
0.0
31
0.0
12
1.0
22
0.0
32
0.0
13
0.0
23
1.0
33
0.0
74
2
41
0.0
41
0.0
75
0
74
2
41
0.0
41
0.0
75
0
11
80.0
21
0.0
31
0.0
12
1.0
22
0.0
32
0.0
13
0.0
23
1.0
33
0.0
74
2
41
0.0
41
0.0
75
0
74
2
41
0.0
41
0.0
75
0
0
MLINE
5
104
330
1F
100
AcDbEntity
8
MUROS-ML
100
AcDbMline
2
VALLE-DOBLE
340
101
40
1.0
70
0
71
1
72
3
73
2
10
0.0
20
30.0
30
0.0
210
0.0
220
0.0
230
1.0
11
0.0
21
30.0
31
0.0
12
1.0
22
0.0
32
0.0
13
0.0
23
1.0
33
0.0
74
2
41
0.0
41
0.0
75
0
74
2
41
0.0
41
0.0
75
0
11
50.0
21
30.0
31
0.0
12
0.0
22
1.0
32
0.0
13
-0.7071067811865475
23
0.7071067811865475
33
0.0
74
2
41
0.0
41
0.0
75
0
74
2
41
0.0
41
0.0
75
0
11
50.0
21
80.0
31
0.0
12
0.0
22
1.0
32
0.0
13
-1.0
23
0.0
33
0.0
74
2
41
0.0
41
0.0
75
0
74
2
41
0.0
41
0.0
75
0
0
ENDSEC
0
SECTION
2
OBJECTS
0
DICTIONARY
5
C
330
0
100
AcDbDictionary
281
1
3
ACAD_GROUP
350
D
3
ACAD_MLINESTYLE
350
100
0
DICTIONARY
5
D
330
C
100
AcDbDictionary
281
1
0
DICTIONARY
5
100
330
C
100
AcDbDictionary
281
1
3
VALLE-DOBLE
350
101
0
MLINESTYLE
5
101
102
{ACAD_REACTORS
330
100
102
}
330
100
100
AcDbMlineStyle
2
VALLE-DOBLE
70
0
3
Muro doble de la ola 2
62
256
51
90.0
52
90.0
71
2
49
0.5
62
1
6
CONTINUOUS
49
-0.5
62
5
6
CONTINUOUS
0
ENDSEC
0
EOF
