0
SECTION
2
HEADER
9
$ACADVER
1
AC1015
9
$HANDSEED
5
FFFF
0
ENDSEC
0
SECTION
2
TABLES
0
TABLE
2
VPORT
5
8
100
AcDbSymbolTable
70
0
0
ENDTAB
0
TABLE
2
LTYPE
5
5
100
AcDbSymbolTable
70
3
0
LTYPE
5
14
100
AcDbSymbolTableRecord
100
AcDbLinetypeTableRecord
2
ByBlock
70
0
3

72
65
73
0
40
0.0
0
LTYPE
5
15
100
AcDbSymbolTableRecord
100
AcDbLinetypeTableRecord
2
ByLayer
70
0
3

72
65
73
0
40
0.0
0
LTYPE
5
16
100
AcDbSymbolTableRecord
100
AcDbLinetypeTableRecord
2
CONTINUOUS
70
0
3
Linea continua
72
65
73
0
40
0.0
0
ENDTAB
0
TABLE
2
LAYER
5
2
100
AcDbSymbolTable
70
2
0
LAYER
5
10
100
AcDbSymbolTableRecord
100
AcDbLayerTableRecord
2
0
70
0
62
7
6
CONTINUOUS
0
LAYER
5
100
100
AcDbSymbolTableRecord
100
AcDbLayerTableRecord
2
TERRENO
70
0
62
84
6
CONTINUOUS
0
ENDTAB
0
TABLE
2
STYLE
5
3
100
AcDbSymbolTable
70
1
0
STYLE
5
11
100
AcDbSymbolTableRecord
100
AcDbTextStyleTableRecord
2
STANDARD
70
0
40
0.0
41
1.0
50
0.0
71
0
42
2.5
3
txt
4

0
ENDTAB
0
TABLE
2
VIEW
5
6
100
AcDbSymbolTable
70
0
0
ENDTAB
0
TABLE
2
UCS
5
7
100
AcDbSymbolTable
70
0
0
ENDTAB
0
TABLE
2
APPID
5
9
100
AcDbSymbolTable
70
1
0
APPID
5
12
100
AcDbSymbolTableRecord
100
AcDbRegAppTableRecord
2
ACAD
70
0
0
ENDTAB
0
TABLE
2
DIMSTYLE
5
A
100
AcDbSymbolTable
70
1
0
DIMSTYLE
105
27
100
AcDbSymbolTableRecord
100
AcDbDimStyleTableRecord
2
STANDARD
70
0
0
ENDTAB
0
TABLE
2
BLOCK_RECORD
5
1
100
AcDbSymbolTable
70
2
0
BLOCK_RECORD
5
1F
100
AcDbSymbolTableRecord
100
AcDbBlockTableRecord
2
*Model_Space
0
BLOCK_RECORD
5
1B
100
AcDbSymbolTableRecord
100
AcDbBlockTableRecord
2
*Paper_Space
0
ENDTAB
0
ENDSEC
0
SECTION
2
BLOCKS
0
BLOCK
5
20
330
1F
100
AcDbEntity
8
0
100
AcDbBlockBegin
2
*Model_Space
70
0
10
0.0
20
0.0
30
0.0
3
*Model_Space
1

0
ENDBLK
5
21
330
1F
100
AcDbEntity
8
0
100
AcDbBlockEnd
0
BLOCK
5
1C
330
1B
100
AcDbEntity
67
1
8
0
100
AcDbBlockBegin
2
*Paper_Space
70
0
10
0.0
20
0.0
30
0.0
3
*Paper_Space
1

0
ENDBLK
5
1D
330
1B
100
AcDbEntity
67
1
8
0
100
AcDbBlockEnd
0
ENDSEC
0
SECTION
2
ENTITIES
0
POLYLINE
5
101
330
1F
100
AcDbEntity
8
TERRENO
100
AcDbPolygonMesh
66
1
10
0.0
20
0.0
30
0.0
70
16
71
3
72
4
0
VERTEX
5
102
330
1F
100
AcDbEntity
8
TERRENO
100
AcDbVertex
100
AcDbPolygonMeshVertex
10
0.0
20
0.0
30
0.0
70
64
0
VERTEX
5
103
330
1F
100
AcDbEntity
8
TERRENO
100
AcDbVertex
100
AcDbPolygonMeshVertex
10
0.0
20
20.0
30
2.0
70
64
0
VERTEX
5
104
330
1F
100
AcDbEntity
8
TERRENO
100
AcDbVertex
100
AcDbPolygonMeshVertex
10
0.0
20
40.0
30
3.0
70
64
0
VERTEX
5
105
330
1F
100
AcDbEntity
8
TERRENO
100
AcDbVertex
100
AcDbPolygonMeshVertex
10
0.0
20
60.0
30
1.0
70
64
0
VERTEX
5
106
330
1F
100
AcDbEntity
8
TERRENO
100
AcDbVertex
100
AcDbPolygonMeshVertex
10
20.0
20
0.0
30
1.0
70
64
0
VERTEX
5
107
330
1F
100
AcDbEntity
8
TERRENO
100
AcDbVertex
100
AcDbPolygonMeshVertex
10
20.0
20
20.0
30
4.0
70
64
0
VERTEX
5
108
330
1F
100
AcDbEntity
8
TERRENO
100
AcDbVertex
100
AcDbPolygonMeshVertex
10
20.0
20
40.0
30
6.0
70
64
0
VERTEX
5
109
330
1F
100
AcDbEntity
8
TERRENO
100
AcDbVertex
100
AcDbPolygonMeshVertex
10
20.0
20
60.0
30
2.0
70
64
0
VERTEX
5
10A
330
1F
100
AcDbEntity
8
TERRENO
100
AcDbVertex
100
AcDbPolygonMeshVertex
10
40.0
20
0.0
30
0.0
70
64
0
VERTEX
5
10B
330
1F
100
AcDbEntity
8
TERRENO
100
AcDbVertex
100
AcDbPolygonMeshVertex
10
40.0
20
20.0
30
3.0
70
64
0
VERTEX
5
10C
330
1F
100
AcDbEntity
8
TERRENO
100
AcDbVertex
100
AcDbPolygonMeshVertex
10
40.0
20
40.0
30
5.0
70
64
0
VERTEX
5
10D
330
1F
100
AcDbEntity
8
TERRENO
100
AcDbVertex
100
AcDbPolygonMeshVertex
10
40.0
20
60.0
30
1.0
70
64
0
SEQEND
5
10E
330
1F
100
AcDbEntity
8
TERRENO
0
POLYLINE
5
10F
330
1F
100
AcDbEntity
8
TERRENO
100
AcDbPolyFaceMesh
66
1
10
0.0
20
0.0
30
0.0
70
64
71
5
72
2
0
VERTEX
5
110
330
1F
100
AcDbEntity
8
TERRENO
100
AcDbVertex
100
AcDbPolyFaceMeshVertex
10
100.0
20
0.0
30
0.0
70
192
0
VERTEX
5
111
330
1F
100
AcDbEntity
8
TERRENO
100
AcDbVertex
100
AcDbPolyFaceMeshVertex
10
140.0
20
0.0
30
0.0
70
192
0
VERTEX
5
112
330
1F
100
AcDbEntity
8
TERRENO
100
AcDbVertex
100
AcDbPolyFaceMeshVertex
10
140.0
20
30.0
30
0.0
70
192
0
VERTEX
5
113
330
1F
100
AcDbEntity
8
TERRENO
100
AcDbVertex
100
AcDbPolyFaceMeshVertex
10
100.0
20
30.0
30
0.0
70
192
0
VERTEX
5
114
330
1F
100
AcDbEntity
8
TERRENO
100
AcDbVertex
100
AcDbPolyFaceMeshVertex
10
120.0
20
15.0
30
20.0
70
192
0
VERTEX
5
115
330
1F
100
AcDbEntity
8
TERRENO
100
AcDbFaceRecord
10
0.0
20
0.0
30
0.0
70
128
71
1
72
2
73
5
0
VERTEX
5
116
330
1F
100
AcDbEntity
8
TERRENO
100
AcDbFaceRecord
10
0.0
20
0.0
30
0.0
70
128
71
1
72
2
73
3
74
4
0
SEQEND
5
117
330
1F
100
AcDbEntity
8
TERRENO
0
ENDSEC
0
SECTION
2
OBJECTS
0
DICTIONARY
5
C
330
0
100
AcDbDictionary
281
1
3
ACAD_GROUP
350
D
0
DICTIONARY
5
D
330
C
100
AcDbDictionary
281
1
0
ENDSEC
0
EOF
