0
SECTION
2
HEADER
9
$ACADVER
1
AC1009
0
ENDSEC
0
SECTION
2
TABLES
0
TABLE
2
LTYPE
70
2
0
LTYPE
2
CONTINUOUS
70
0
3
Linea continua
72
65
73
0
40
0.0
0
LTYPE
2
TRAZOS
70
0
3
Trazos - - - -
72
65
73
2
40
1.0
49
0.75
49
-0.25
0
ENDTAB
0
TABLE
2
LAYER
70
7
0
LAYER
2
0
70
0
62
7
6
CONTINUOUS
0
LAYER
2
MUROS
70
0
62
1
6
CONTINUOUS
0
LAYER
2
EJES
70
0
62
2
6
TRAZOS
0
LAYER
2
COTAS
70
0
62
3
6
CONTINUOUS
0
LAYER
2
CONGELADA
70
1
62
4
6
CONTINUOUS
0
LAYER
2
BLOQUEADA
70
4
62
5
6
CONTINUOUS
0
LAYER
2
TEXTOS
70
0
62
6
6
CONTINUOUS
0
ENDTAB
0
ENDSEC
0
SECTION
2
ENTITIES
0
LINE
8
MUROS
10
0.0
20
0.0
30
0.0
11
50.0
21
0.0
31
0.0
0
LINE
8
EJES
10
0.0
20
10.0
30
0.0
11
50.0
21
10.0
31
0.0
0
LINE
8
COTAS
10
0.0
20
20.0
30
0.0
11
50.0
21
20.0
31
0.0
0
LINE
8
CONGELADA
10
0.0
20
30.0
30
0.0
11
50.0
21
30.0
31
0.0
0
LINE
8
BLOQUEADA
10
0.0
20
40.0
30
0.0
11
50.0
21
40.0
31
0.0
0
CIRCLE
8
TEXTOS
10
25.0
20
60.0
30
0.0
40
8.0
0
ENDSEC
0
EOF
