0
SECTION
2
HEADER
9
$ACADVER
1
AC1009
0
ENDSEC
0
SECTION
2
BLOCKS
0
BLOCK
8
0
2
MARCO-A
70
0
10
0.0
20
0.0
30
0.0
0
LINE
8
0
10
0.0
20
0.0
30
0.0
11
20.0
21
0.0
31
0.0
0
LINE
8
0
10
20.0
20
0.0
30
0.0
11
20.0
21
10.0
31
0.0
0
LINE
8
0
10
20.0
20
10.0
30
0.0
11
0.0
21
10.0
31
0.0
0
LINE
8
0
10
0.0
20
10.0
30
0.0
11
0.0
21
0.0
31
0.0
0
CIRCLE
8
0
10
10.0
20
5.0
30
0.0
40
3.0
0
ENDBLK
8
0
0
ENDSEC
0
SECTION
2
ENTITIES
0
INSERT
8
0
2
MARCO-A
10
10.0
20
10.0
30
0.0
0
INSERT
8
0
2
MARCO-A
10
50.0
20
10.0
30
0.0
50
30.0
0
INSERT
8
0
2
MARCO-A
10
90.0
20
10.0
30
0.0
41
2.0
42
1.5
43
1.0
0
INSERT
8
0
2
MARCO-A
10
10.0
20
40.0
30
0.0
41
0.5
42
0.5
43
1.0
50
90.0
0
ENDSEC
0
EOF
